# xmcd CD database file
#
# Track frame offsets:
#	150
#	23727
#	46555
#	69507
#	89822
#	113567
#	136240
#	160407
#	179472
#	201900
#	224225
#	245140
#	273200
#
# Disc length: 3874 seconds
#
# Revision: 2
# Processed by: cddbd v1.5.1PL2 Copyright (c) Steve Scherf et al.
# Submitted via: CDex 1.50
#
DISCID=c10f200d
DTITLE=上戸彩 - License
DYEAR=2006
DGENRE=misc
TTITLE0=笑顔のままで
TTITLE1=1 million thanks
TTITLE2=風をうけて
TTITLE3=ぬくもり
TTITLE4=約束の場所
TTITLE5=もしも願いが叶うなら feat.KOHEI JAPAN
TTITLE6=Look into the future
TTITLE7=星空ハイウエイ
TTITLE8=限りある時の中で
TTITLE9=夢のチカラ
TTITLE10=白い雪が降る夜に
TTITLE11=この世界に生まれて
TTITLE12=Fermate
EXTD=YEAR: 2006
EXTT0=
EXTT1=
EXTT2=
EXTT3=
EXTT4=
EXTT5=
EXTT6=
EXTT7=
EXTT8=
EXTT9=
EXTT10=
EXTT11=
EXTT12=
PLAYORDER=
